<svg width="596" height="104" viewBox="0 0 596 104" fill="none" xmlns="http://www.w3.org/2000/svg">
<path d="M0.648155 74.0419H5.78816V92.3765C5.78816 94.7992 6.14416 96.5152 6.85349 97.5259C7.56282 98.5379 8.73349 99.0432 10.3668 99.0432C12.0002 99.0432 13.1682 98.5405 13.8708 97.5365C14.5735 96.5325 14.9255 94.8125 14.9255 92.3765V74.0419H19.8255V91.7925C19.8255 95.6232 19.0415 98.4445 17.4762 100.258C15.9095 102.071 13.5002 102.978 10.2468 102.978C6.98016 102.978 4.56416 102.071 2.99749 100.258C1.43082 98.4445 0.648155 95.6232 0.648155 91.7925V74.0419Z" fill="#EA2636"/>
<path d="M34.0232 78.7203L30.0672 91.6336H37.6779L34.0232 78.7203ZM31.1912 74.0416H37.1152L46.0712 102.578H40.6899L38.8019 95.6696H28.8419L26.8739 102.578H21.8139L31.1912 74.0416Z" fill="#EA2636"/>
<path d="M49.0427 74.0419H63.7627V77.9779H54.184V85.9699H63.22V89.9059H54.184V98.6219H64.204V102.577H49.0427V74.0419Z" fill="#EA2636"/>
<path d="M79.7271 74.0415H84.8684V102.576H79.7271V74.0415Z" fill="#EA2636"/>
<path d="M90.9119 74.0419H96.8759L106.616 96.1712V74.0419H111.093V102.577H105.049L95.3905 80.5272V102.577H90.9119V74.0419Z" fill="#EA2636"/>
<path d="M114.849 74.0419H132.741V78.1379H126.355V102.577H121.174V78.1379H114.849V74.0419Z" fill="#EA2636"/>
<path d="M136.535 74.0419H151.255V77.9779H141.677V85.9699H150.713V89.9059H141.677V98.6219H151.697V102.577H136.535V74.0419Z" fill="#EA2636"/>
<path d="M161.778 77.978V86.4113H163.223C165.259 86.4113 166.68 86.07 167.491 85.3887C168.3 84.7047 168.706 83.5407 168.706 81.894C168.706 80.474 168.314 79.4673 167.531 78.8713C166.748 78.2767 165.352 77.978 163.344 77.978H161.778ZM156.738 74.042H162.56C166.778 74.042 169.703 74.6233 171.336 75.7887C172.97 76.9527 173.786 78.9087 173.786 81.6527C173.786 83.434 173.322 84.8927 172.391 86.03C171.46 87.1687 170.091 87.938 168.284 88.3393C169.18 88.5007 169.89 88.8647 170.412 89.434C170.935 90.0033 171.456 91.0767 171.979 92.6567L175.312 102.577H169.931L167.3 94.022C166.831 92.4967 166.334 91.506 165.804 91.0513C165.275 90.5953 164.455 90.3673 163.344 90.3673H161.778V102.577H156.738V74.042Z" fill="#EA2636"/>
<path d="M178.786 74.0419H184.75L194.49 96.1712V74.0419H198.967V102.577H192.923L183.265 80.5272V102.577H178.786V74.0419Z" fill="#EA2636"/>
<path d="M214.029 78.7203L210.073 91.6336H217.684L214.029 78.7203ZM211.197 74.0416H217.121L226.077 102.578H220.696L218.808 95.6696H208.848L206.88 102.578H201.82L211.197 74.0416Z" fill="#EA2636"/>
<path d="M225.274 74.0419H243.166V78.1379H236.78V102.577H231.599V78.1379H225.274V74.0419Z" fill="#EA2636"/>
<path d="M246.962 74.0415H252.103V102.576H246.962V74.0415Z" fill="#EA2636"/>
<path d="M268.127 77.5367C266.225 77.5367 264.769 78.4567 263.759 80.2967C262.748 82.138 262.243 84.8047 262.243 88.2993C262.243 91.7927 262.745 94.4567 263.749 96.2913C264.753 98.126 266.212 99.0433 268.127 99.0433C270.041 99.0433 271.5 98.126 272.504 96.2913C273.508 94.4567 274.011 91.7927 274.011 88.2993C274.011 84.8193 273.505 82.1553 272.495 80.3073C271.484 78.4593 270.028 77.5367 268.127 77.5367ZM268.127 73.5793C271.728 73.5793 274.519 74.8647 276.5 77.4353C278.481 80.006 279.472 83.6273 279.472 88.2993C279.472 92.9713 278.481 96.586 276.5 99.1433C274.519 101.701 271.728 102.978 268.127 102.978C264.525 102.978 261.735 101.703 259.753 99.154C257.771 96.6033 256.781 92.9847 256.781 88.2993C256.781 83.6273 257.771 80.006 259.753 77.4353C261.735 74.8647 264.525 73.5793 268.127 73.5793Z" fill="#EA2636"/>
<path d="M284.211 74.0419H290.175L299.914 96.1712V74.0419H304.394V102.577H298.349L288.69 80.5272V102.577H284.211V74.0419Z" fill="#EA2636"/>
<path d="M319.453 78.7203L315.497 91.6336H323.108L319.453 78.7203ZM316.623 74.0416H322.547L331.503 102.578H326.12L324.233 95.6696H314.273L312.305 102.578H307.245L316.623 74.0416Z" fill="#EA2636"/>
<path d="M334.474 74.0419H339.614V98.3805H348.933V102.577H334.474V74.0419Z" fill="#EA2636"/>
<path d="M362.688 74.0415H367.828V102.576H362.688V74.0415Z" fill="#EA2636"/>
<path d="M373.873 74.0419H379.838L389.575 96.1712V74.0419H394.054V102.577H388.01L378.35 80.5272V102.577H373.873V74.0419Z" fill="#EA2636"/>
<path d="M397.267 74.0419H402.749L408.493 96.6525L414.758 74.0419H419.818L411.125 102.577H405.662L397.267 74.0419Z" fill="#EA2636"/>
<path d="M423.072 74.0419H437.792V77.9779H428.212V85.9699H437.249V89.9059H428.212V98.6219H438.233V102.577H423.072V74.0419Z" fill="#EA2636"/>
<path d="M456.667 74.4832L456.426 78.8419C455.488 78.4538 454.604 78.1592 453.775 77.9565C452.944 77.7565 452.168 77.6565 451.446 77.6565C450.092 77.6565 449.056 77.9445 448.334 78.5192C447.61 79.0952 447.25 79.9192 447.25 80.9899C447.25 81.7805 447.514 82.4965 448.042 83.1379C448.571 83.7819 449.766 84.6845 451.627 85.8485L452.048 86.1112C456.064 88.6685 458.072 91.4392 458.072 94.4245C458.072 96.9952 457.215 99.0725 455.502 100.659C453.788 102.246 451.546 103.039 448.775 103.039C447.638 103.039 446.51 102.918 445.391 102.678C444.274 102.437 443.246 102.102 442.308 101.674L442.691 97.2765C443.695 97.8379 444.682 98.2592 445.652 98.5405C446.623 98.8219 447.584 98.9619 448.534 98.9619C449.886 98.9619 450.958 98.6312 451.747 97.9685C452.536 97.3059 452.931 96.4192 452.931 95.3072C452.931 93.5672 451.472 91.7925 448.554 89.9859C448.126 89.7192 447.804 89.5179 447.59 89.3845C445.434 88.0179 443.963 86.7565 443.172 85.5992C442.382 84.4405 441.987 83.0659 441.987 81.4712C441.987 79.0632 442.804 77.1445 444.438 75.7192C446.071 74.2925 448.286 73.5792 451.084 73.5792C452.008 73.5792 452.942 73.6579 453.886 73.8112C454.83 73.9645 455.755 74.1885 456.667 74.4832Z" fill="#EA2636"/>
<path d="M460.584 74.0419H478.476V78.1379H472.09V102.577H466.909V78.1379H460.584V74.0419Z" fill="#EA2636"/>
<path d="M482.27 74.0419H489.579L495.704 95.0072L501.909 74.0419H509.359V102.577H504.72V78.0579L497.351 102.577H494.018L486.669 78.0979V102.577H482.27V74.0419Z" fill="#EA2636"/>
<path d="M515.385 74.0419H530.104V77.9779H520.525V85.9699H529.562V89.9059H520.525V98.6219H530.546V102.577H515.385V74.0419Z" fill="#EA2636"/>
<path d="M535.585 74.0419H541.55L551.288 96.1712V74.0419H555.766V102.577H549.722L540.062 80.5272V102.577H535.585V74.0419Z" fill="#EA2636"/>
<path d="M559.523 74.0419H577.415V78.1379H571.029V102.577H565.848V78.1379H559.523V74.0419Z" fill="#EA2636"/>
<path d="M594.604 74.4832L594.363 78.8419C593.426 78.4538 592.542 78.1592 591.713 77.9565C590.882 77.7565 590.106 77.6565 589.383 77.6565C588.03 77.6565 586.994 77.9445 586.271 78.5192C585.547 79.0952 585.187 79.9192 585.187 80.9899C585.187 81.7805 585.451 82.4965 585.979 83.1379C586.509 83.7819 587.703 84.6845 589.565 85.8485L589.986 86.1112C594.002 88.6685 596.01 91.4392 596.01 94.4245C596.01 96.9952 595.152 99.0725 593.439 100.659C591.726 102.246 589.483 103.039 586.713 103.039C585.575 103.039 584.447 102.918 583.328 102.678C582.211 102.437 581.183 102.102 580.246 101.674L580.628 97.2765C581.633 97.8379 582.619 98.2592 583.59 98.5405C584.56 98.8219 585.522 98.9619 586.471 98.9619C587.823 98.9619 588.895 98.6312 589.685 97.9685C590.474 97.3059 590.868 96.4192 590.868 95.3072C590.868 93.5672 589.41 91.7925 586.491 89.9859C586.063 89.7192 585.742 89.5179 585.527 89.3845C583.371 88.0179 581.9 86.7565 581.11 85.5992C580.319 84.4405 579.924 83.0659 579.924 81.4712C579.924 79.0632 580.742 77.1445 582.375 75.7192C584.009 74.2925 586.223 73.5792 589.022 73.5792C589.946 73.5792 590.879 73.6579 591.823 73.8112C592.767 73.9645 593.693 74.1885 594.604 74.4832Z" fill="#EA2636"/>
<path d="M18.6039 29.5862C18.4265 29.3422 18.2985 29.1262 18.2212 28.9382C18.1425 28.7488 18.1039 28.5208 18.1039 28.2555C18.1039 27.8115 18.1705 27.2955 18.3039 26.7075C18.4372 26.1195 18.6039 25.5595 18.8039 25.0275C19.0025 24.4955 19.2252 24.0462 19.4692 23.6795C19.7132 23.3128 19.9452 23.1302 20.1679 23.1302C20.4119 23.1302 20.6225 23.2408 20.7999 23.4622C20.9772 23.6848 21.1879 23.9502 21.4332 24.2622C22.0319 25.1062 22.6079 26.0488 23.1625 27.0902C23.7172 28.1328 24.2119 29.2595 24.6439 30.4688C25.0759 31.6768 25.4199 32.9755 25.6759 34.3622C25.9305 35.7488 26.0585 37.2075 26.0585 38.7382C26.0585 40.1142 25.8865 41.5608 25.5425 43.0808C25.1985 44.6022 24.7105 46.0995 24.0785 47.5742C23.4465 49.0502 22.6812 50.4582 21.7825 51.8008C20.8839 53.1435 19.8852 54.3248 18.7865 55.3448C17.6879 56.3648 16.5079 57.1755 15.2425 57.7755C13.9785 58.3742 12.6465 58.6728 11.2492 58.6728C9.78521 58.6728 8.21988 58.4502 6.55588 58.0075C4.89188 57.5635 3.18388 56.8315 1.43188 55.8115C1.14254 55.6328 0.903877 55.4782 0.715877 55.3448C0.526544 55.2128 0.382545 55.0675 0.283878 54.9128C0.183878 54.7568 0.110545 54.5675 0.0665448 54.3462C0.0225448 54.1248 -0.00012207 53.8355 -0.00012207 53.4822C-0.00012207 52.5715 0.221211 52.1168 0.665211 52.1168C0.865211 52.1168 1.16521 52.2222 1.56521 52.4328C1.96388 52.6435 2.43988 52.8835 2.99588 53.1488C3.54921 53.4142 4.17721 53.6528 4.87588 53.8648C5.57454 54.0742 6.33454 54.1795 7.15588 54.1795C8.53054 54.1795 9.87854 53.9142 11.1985 53.3822C12.5185 52.8488 13.7665 52.1622 14.9425 51.3182C16.1185 50.4742 17.1999 49.5328 18.1879 48.4902C19.1745 47.4475 20.0225 46.4035 20.7332 45.3608C21.4439 44.3182 21.9985 43.3368 22.3972 42.4155C22.7972 41.4955 22.9972 40.7342 22.9972 40.1355C22.9972 39.5822 22.8692 38.8662 22.6145 37.9902C22.3585 37.1142 22.0252 36.1875 21.6159 35.2115C21.2052 34.2342 20.7385 33.2528 20.2172 32.2662C19.6959 31.2795 19.1585 30.3862 18.6039 29.5862Z" fill="#EA2636"/>
<path d="M44.3956 44.7293C42.7756 44.7293 41.3836 44.5067 40.2196 44.0627C39.0543 43.62 38.0836 42.9307 37.3076 42C36.5303 41.068 35.9263 39.8813 35.493 38.4387C35.061 36.996 34.7783 35.2773 34.645 33.28C34.489 31.2613 34.3503 29.176 34.229 27.024C34.1063 24.872 33.9743 22.7307 33.829 20.6C33.685 18.472 33.525 16.3853 33.3463 14.344C33.169 12.304 32.9583 10.3627 32.7143 8.52001C32.7143 7.83201 32.8476 7.17868 33.1143 6.55601C33.3796 5.93601 33.7343 5.26934 34.1783 4.56001C34.5783 3.91734 34.9276 3.40668 35.2276 3.02934C35.5263 2.65201 35.777 2.46401 35.977 2.46401C36.2423 2.46401 36.4303 2.59601 36.5423 2.86268C36.741 3.88268 36.8956 5.02668 37.0076 6.29068C37.1183 7.55468 37.2076 8.79868 37.2743 10.0187L38.3716 31.3827C38.5063 33.9347 39.1316 35.8427 40.253 37.108C41.373 38.372 42.9316 39.004 44.9276 39.004L44.3956 44.7293Z" fill="#EA2636"/>
<path d="M63.6644 39.8036C63.9524 39.7809 64.2017 39.6196 64.4137 39.3209C64.6244 39.0209 64.7297 38.6276 64.7297 38.1396C64.5964 37.4076 64.3751 36.6089 64.0644 35.7436C63.7524 34.8783 63.3697 34.0529 62.9151 33.2636C62.4604 32.4769 61.9444 31.7823 61.3684 31.1836C60.7911 30.5849 60.1697 30.1849 59.5044 29.9863C59.0391 29.9863 58.5831 30.1129 58.1404 30.3689C57.6964 30.6236 57.2911 30.9676 56.9257 31.3996C56.5591 31.8316 56.2257 32.3369 55.9271 32.9143C55.6271 33.4916 55.3884 34.0903 55.2111 34.7116C55.7444 35.3769 56.3871 36.0036 57.1417 36.5916C57.8951 37.1796 58.6671 37.7076 59.4551 38.1716C60.2417 38.6383 61.0071 39.0156 61.7511 39.3036C62.4937 39.5929 63.1324 39.7596 63.6644 39.8036ZM74.8137 44.7289C74.0364 44.7289 73.3431 44.6676 72.7337 44.5463C72.1231 44.4249 71.5524 44.2356 71.0191 43.9796C70.4871 43.7249 69.9884 43.3916 69.5217 42.9823C69.0551 42.5716 68.5791 42.0783 68.0911 41.4996C67.8911 42.0116 67.6577 42.5276 67.3924 43.0489C67.1257 43.5689 66.8271 44.0423 66.4937 44.4623C66.1604 44.8849 65.8004 45.2223 65.4124 45.4783C65.0231 45.7329 64.6297 45.8609 64.2297 45.8609C63.2764 45.8609 62.2951 45.6889 61.2844 45.3436C60.2751 44.9996 59.2724 44.5463 58.2737 43.9796C57.2751 43.4143 56.3031 42.7609 55.3604 42.0169C54.4177 41.2743 53.5471 40.5129 52.7484 39.7369C52.2377 40.7343 51.6724 41.5556 51.0524 42.1996C50.4297 42.8423 49.7711 43.3529 49.0711 43.7303C48.3724 44.1089 47.6284 44.3689 46.8417 44.5116C46.0537 44.6569 45.2396 44.7293 44.3956 44.7293C44.109 44.7293 43.7911 44.6783 43.4471 44.5796C43.1031 44.4796 42.7871 44.3343 42.4977 44.1463C42.2111 43.9583 41.9657 43.7249 41.7671 43.4476C41.5671 43.1703 41.4671 42.8543 41.4671 42.4983V40.7689C41.4671 40.4583 41.5724 40.1916 41.7831 39.9703C41.9951 39.7476 42.2657 39.5649 42.5991 39.4209C42.9311 39.2756 43.3031 39.1703 43.7137 39.1049C44.1244 39.0383 44.5276 39.004 44.9276 39.004C46.369 39.004 47.6124 38.7676 48.6551 38.2889C49.6977 37.8129 50.5404 36.9423 51.1844 35.6769C51.5617 34.9903 51.9004 34.3076 52.1991 33.6303C52.4991 32.9529 52.8364 32.2823 53.2151 31.6156C54.0577 29.6649 55.0951 28.1103 56.3271 26.9569C57.5577 25.8036 58.8724 25.2263 60.2697 25.2263C61.2231 25.2263 62.0444 25.4769 62.7324 25.9756C63.4204 26.4743 64.0751 27.1636 64.6964 28.0396C65.3177 28.9156 65.9497 29.9369 66.5937 31.1009C67.2364 32.2663 68.0124 33.5129 68.9231 34.8449C69.3217 35.5996 69.7164 36.2423 70.1044 36.7756C70.4924 37.3076 70.9244 37.7396 71.4017 38.0729C71.8791 38.4049 72.4284 38.6449 73.0497 38.7876C73.6697 38.9329 74.4364 39.0036 75.3457 39.0036L74.8137 44.7289Z" fill="#EA2636"/>
<path d="M84.3317 16.7736C84.6424 16.307 84.9744 15.9243 85.3304 15.6256C85.6851 15.3256 86.0624 15.1763 86.4611 15.1763C86.7051 15.1763 86.9944 15.243 87.3264 15.3763C87.6598 15.5096 88.0917 15.775 88.6251 16.175C89.1357 16.575 89.5277 16.963 89.8064 17.3403C90.0824 17.7163 90.2224 18.1043 90.2224 18.5043C90.2224 19.015 89.9224 19.7136 89.3237 20.6003C88.9691 21.1336 88.6131 21.5496 88.2584 21.8496C87.9037 22.1483 87.5371 22.299 87.1611 22.299C86.9157 22.299 86.6277 22.2376 86.2957 22.115C85.9624 21.9936 85.5291 21.7216 84.9971 21.3003C84.5091 20.9216 84.1264 20.5283 83.8491 20.119C83.5717 19.7083 83.4331 19.3136 83.4331 18.9363C83.4331 18.6483 83.4944 18.3443 83.6157 18.0216C83.7384 17.7003 83.9757 17.2843 84.3317 16.7736ZM79.7731 9.58429C80.0824 9.09762 80.4211 8.69762 80.7877 8.38695C81.1531 8.07762 81.5357 7.92029 81.9357 7.92029C82.1797 7.92029 82.4677 7.98695 82.8011 8.12162C83.1331 8.25362 83.5544 8.52029 84.0651 8.91895C85.1304 9.71896 85.6624 10.507 85.6624 11.283C85.6624 11.5256 85.6011 11.8203 85.4797 12.1643C85.3584 12.5083 85.1184 12.903 84.7637 13.3456C84.4091 13.8776 84.0597 14.295 83.7157 14.5936C83.3717 14.8936 82.9997 15.043 82.6011 15.043C82.3797 15.043 82.1024 14.9883 81.7691 14.8763C81.4357 14.7656 81.0037 14.5003 80.4704 14.079C79.9824 13.679 79.5997 13.279 79.3224 12.8803C79.0451 12.4803 78.9077 12.0923 78.9077 11.715C78.9077 11.427 78.9678 11.1163 79.0904 10.783C79.2117 10.451 79.4397 10.051 79.7731 9.58429ZM77.0104 17.2723C77.3211 16.7856 77.6597 16.391 78.0251 16.091C78.3904 15.7923 78.7624 15.6416 79.1397 15.6416C79.4064 15.6416 79.7051 15.715 80.0384 15.8576C80.3717 16.003 80.7931 16.275 81.3037 16.6736C81.8131 17.0736 82.2064 17.4563 82.4851 17.8216C82.7611 18.1883 82.9011 18.5816 82.9011 19.003C82.9011 19.247 82.8331 19.5416 82.7011 19.8856C82.5677 20.2296 82.3451 20.623 82.0357 21.067C81.6584 21.5776 81.2971 21.9936 80.9531 22.315C80.6091 22.6363 80.2384 22.7976 79.8384 22.7976C79.5944 22.7976 79.3064 22.7363 78.9731 22.615C78.6411 22.4923 78.2197 22.2096 77.7091 21.7656C77.2211 21.3883 76.8371 21.0003 76.5611 20.6003C76.2824 20.2016 76.1451 19.8136 76.1451 19.4363C76.1451 19.147 76.2051 18.8323 76.3277 18.487C76.4491 18.143 76.6771 17.739 77.0104 17.2723ZM94.5491 44.7296C92.4184 44.7296 90.5931 44.2856 89.0744 43.3976C87.5544 42.511 86.4611 40.991 85.7957 38.839H85.6291C85.2971 39.4603 84.8691 40.103 84.3477 40.7683C83.8264 41.4336 83.3331 41.9563 82.8677 42.3323C82.3571 42.7096 81.7851 43.0483 81.1531 43.3483C80.5211 43.647 79.8504 43.8976 79.1397 44.0963C78.4291 44.2963 77.7024 44.4523 76.9597 44.563C76.2171 44.6736 75.5017 44.7289 74.8137 44.7289C74.5271 44.7289 74.2091 44.679 73.8651 44.579C73.5211 44.479 73.2051 44.335 72.9157 44.1456C72.6291 43.959 72.3838 43.7256 72.1851 43.4483C71.9851 43.171 71.8851 42.8549 71.8851 42.499V40.7683C71.8851 40.459 71.9904 40.1909 72.2011 39.9696C72.4131 39.7469 72.6837 39.5656 73.0171 39.4203C73.3491 39.2763 73.7211 39.1709 74.1317 39.1043C74.5424 39.0376 74.9457 39.0036 75.3457 39.0036C75.8991 39.0036 76.4771 38.955 77.0771 38.855C77.6757 38.755 78.2517 38.6216 78.8064 38.4563C79.3611 38.2896 79.8717 38.0896 80.3384 37.8576C80.8037 37.6243 81.2037 37.3629 81.5357 37.075C81.9357 36.7643 82.3117 36.303 82.6677 35.6923C83.0224 35.083 83.3504 34.395 83.6491 33.631C83.9491 32.8643 84.2211 32.0443 84.4651 31.167C84.7091 30.291 84.9304 29.419 85.1304 28.555C85.1744 28.3563 85.2304 28.1936 85.2971 28.0723C85.3624 27.951 85.4851 27.8456 85.6624 27.755C85.8397 27.6683 86.1011 27.6056 86.4451 27.5736C86.7891 27.539 87.2598 27.5243 87.8597 27.5243C88.3917 27.5243 88.6584 27.7456 88.6584 28.1896C88.6584 28.3883 88.6184 28.6936 88.5411 29.1043C88.4637 29.515 88.3757 29.975 88.2757 30.4843C88.1758 30.995 88.0637 31.5176 87.9424 32.0496C87.8197 32.5816 87.7144 33.071 87.6264 33.5136C87.8264 35.4003 88.5691 36.787 89.8557 37.6736C91.1424 38.5616 92.8851 39.0043 95.0811 39.0043L94.5491 44.7296Z" fill="#EA2636"/>
<path d="M104.067 15.676C104.377 15.188 104.709 14.788 105.065 14.4773C105.42 14.1667 105.797 14.012 106.196 14.012C106.44 14.012 106.729 14.0787 107.061 14.2107C107.395 14.344 107.827 14.6213 108.36 15.0427C109.425 15.8653 109.957 16.6627 109.957 17.4387C109.957 17.684 109.891 17.9827 109.757 18.3373C109.624 18.6933 109.401 19.1027 109.092 19.5693C108.715 20.1013 108.348 20.5173 107.993 20.816C107.639 21.116 107.272 21.2653 106.896 21.2653C106.651 21.2653 106.363 21.2 106.031 21.0667C105.697 20.9333 105.264 20.656 104.732 20.2347C104.265 19.8347 103.889 19.436 103.6 19.0373C103.312 18.6373 103.168 18.2493 103.168 17.8707C103.168 17.584 103.229 17.272 103.351 16.94C103.473 16.6067 103.711 16.1867 104.067 15.676ZM96.7455 16.1747C97.0775 15.6867 97.4215 15.288 97.7761 14.9773C98.1308 14.6653 98.4975 14.5107 98.8748 14.5107C99.1415 14.5107 99.4401 14.584 99.7735 14.7267C100.107 14.8707 100.528 15.144 101.039 15.5413C102.103 16.364 102.636 17.1613 102.636 17.9387C102.636 18.1827 102.568 18.4813 102.436 18.8373C102.303 19.192 102.08 19.6027 101.771 20.068C101.393 20.58 101.032 20.9947 100.688 21.316C100.344 21.6387 99.9735 21.7987 99.5735 21.7987C99.3295 21.7987 99.0415 21.7387 98.7081 21.616C98.3761 21.4933 97.9548 21.2107 97.4441 20.7667C96.9561 20.3907 96.5721 19.9907 96.2961 19.5693C96.0175 19.148 95.8801 18.7493 95.8801 18.3707C95.8801 18.06 95.9468 17.7387 96.0788 17.4067C96.2121 17.0733 96.4335 16.6627 96.7455 16.1747ZM114.284 44.7293C112.153 44.7293 110.328 44.2853 108.809 43.3973C107.289 42.5107 106.196 40.9907 105.531 38.8387H105.364C105.032 39.46 104.604 40.1027 104.083 40.768C103.561 41.4333 103.068 41.956 102.603 42.332C102.092 42.7093 101.52 43.048 100.888 43.348C100.256 43.648 99.5855 43.8973 98.8748 44.096C98.1641 44.296 97.4375 44.452 96.6948 44.5627C95.9521 44.6733 95.2371 44.7296 94.5491 44.7296C94.2624 44.7296 93.9441 44.6787 93.6001 44.58C93.2561 44.48 92.9401 44.3347 92.6508 44.1467C92.3641 43.9587 92.1188 43.7253 91.9201 43.448C91.7201 43.1707 91.6201 42.8547 91.6201 42.4987V40.768C91.6201 40.4587 91.7255 40.192 91.9361 39.9707C92.1481 39.748 92.4188 39.5653 92.7521 39.4213C93.0841 39.276 93.4561 39.1707 93.8668 39.104C94.2775 39.0373 94.6811 39.0043 95.0811 39.0043C95.6344 39.0043 96.2121 38.9547 96.8121 38.8547C97.4108 38.756 97.9868 38.6213 98.5415 38.456C99.0961 38.2893 99.6068 38.0907 100.073 37.8573C100.539 37.624 100.939 37.364 101.271 37.0747C101.671 36.764 102.047 36.304 102.403 35.6933C102.757 35.084 103.085 34.3947 103.384 33.6307C103.684 32.8653 103.956 32.044 104.2 31.1667C104.444 30.2907 104.665 29.42 104.865 28.5547C104.909 28.356 104.965 28.1947 105.032 28.072C105.097 27.9507 105.22 27.8453 105.397 27.756C105.575 27.668 105.836 27.6053 106.18 27.5733C106.524 27.5387 106.995 27.524 107.595 27.524C108.127 27.524 108.393 27.7453 108.393 28.1893C108.393 28.388 108.353 28.6947 108.276 29.104C108.199 29.5147 108.111 29.976 108.011 30.484C107.911 30.9947 107.799 31.5173 107.677 32.0493C107.555 32.5827 107.449 33.0707 107.361 33.5133C107.561 35.4 108.304 36.7867 109.591 37.6733C110.877 38.5613 112.62 39.004 114.816 39.004L114.284 44.7293Z" fill="#EA2636"/>
<path d="M150.06 30.3856C150.06 30.1403 150.126 29.8029 150.26 29.3696C150.393 28.9376 150.692 28.3883 151.158 27.7229C151.534 27.1456 151.834 26.7136 152.057 26.4243C152.278 26.1363 152.477 25.9923 152.656 25.9923C152.81 25.9923 152.966 26.1363 153.121 26.4243C153.277 26.8016 153.442 27.2509 153.62 27.7723C153.798 28.2949 153.958 28.8589 154.104 29.4696C154.248 30.0803 154.364 30.7176 154.452 31.3829C154.541 32.0496 154.586 32.7149 154.586 33.3803C154.586 34.4456 154.457 35.5776 154.202 36.7749C153.948 37.9723 153.576 39.0869 153.088 40.1203C152.6 41.1509 152.012 42.0056 151.324 42.6829C150.637 43.3589 149.86 43.6963 148.994 43.6963C148.306 43.6963 147.546 43.5469 146.714 43.2469C145.884 42.9482 145.068 42.5776 144.269 42.1336C143.47 41.6896 142.744 41.2069 142.089 40.6856C141.434 40.1643 140.941 39.6816 140.608 39.2376C140.032 40.1029 139.316 40.8416 138.461 41.4509C137.608 42.0616 136.67 42.5603 135.649 42.9483C134.629 43.3363 133.574 43.6203 132.488 43.7976C131.4 43.9736 130.358 44.0629 129.36 44.0629C128.582 44.0629 127.95 43.9789 127.462 43.8136C126.974 43.6469 126.581 43.4309 126.281 43.1643C125.981 42.8989 125.776 42.5989 125.665 42.2656C125.554 41.9336 125.5 41.5896 125.5 41.2349H125.365C124.921 41.7896 124.306 42.2829 123.518 42.7149C122.73 43.1483 121.838 43.5149 120.84 43.8136C119.841 44.1136 118.782 44.3416 117.661 44.4963C116.541 44.6509 115.416 44.7293 114.284 44.7293C113.996 44.7293 113.68 44.6789 113.336 44.5803C112.992 44.4789 112.676 44.3349 112.386 44.1456C112.098 43.9589 111.854 43.7256 111.654 43.4483C111.454 43.1709 111.356 42.8549 111.356 42.4989V40.7683C111.356 40.4589 111.461 40.1909 111.67 39.9696C111.882 39.7469 112.153 39.5656 112.486 39.4203C112.82 39.2763 113.192 39.1709 113.601 39.1043C114.012 39.0376 114.417 39.004 114.816 39.004C117.523 39.004 119.836 38.5936 121.754 37.7736C123.673 36.9536 125.133 35.8643 126.132 34.5123C126.597 33.8683 127.024 33.1696 127.413 32.4149C127.801 31.6616 128.15 30.8843 128.461 30.0856C128.505 29.9083 128.616 29.7816 128.793 29.7029C128.972 29.6256 129.304 29.5856 129.792 29.5856C130.236 29.5856 130.596 29.6363 130.873 29.7363C131.15 29.8363 131.289 29.9976 131.289 30.2189C131.289 30.6189 131.178 31.1456 130.957 31.8003C130.734 32.4549 130.485 33.1203 130.208 33.7963C129.93 34.4723 129.681 35.0936 129.46 35.6603C129.237 36.2256 129.126 36.6082 129.126 36.8083C129.126 37.7616 129.902 38.2403 131.456 38.2403C132.965 38.2403 134.362 37.9949 135.649 37.5069C136.936 37.0203 137.968 36.2762 138.745 35.2776C139.032 34.9216 139.31 34.4776 139.577 33.9456C139.842 33.4136 140.086 32.8536 140.309 32.2656C140.53 31.6776 140.736 31.0896 140.924 30.5016C141.113 29.9136 141.274 29.3643 141.406 28.8549C141.45 28.6776 141.573 28.5376 141.773 28.4376C141.973 28.3389 142.361 28.2883 142.938 28.2883C143.47 28.2883 143.82 28.3336 143.986 28.4216C144.152 28.5109 144.236 28.6429 144.236 28.8203C144.236 29.1096 144.197 29.4696 144.118 29.9029C144.041 30.3349 143.948 30.7843 143.837 31.2496C143.725 31.7163 143.609 32.1829 143.486 32.6483C143.365 33.1136 143.248 33.5136 143.137 33.8469C143.337 34.4229 143.698 34.9723 144.22 35.4936C144.74 36.0149 145.328 36.4749 145.982 36.8749C146.637 37.2736 147.302 37.5963 147.98 37.8403C148.656 38.0843 149.249 38.2056 149.76 38.2056C150.314 38.2056 150.748 37.9723 151.058 37.5069C151.368 37.0403 151.524 36.3203 151.524 35.3443C151.524 34.7229 151.446 34.1296 151.29 33.5643C151.136 32.9976 150.969 32.4989 150.792 32.0656C150.614 31.6336 150.448 31.2723 150.293 30.9843C150.137 30.6949 150.06 30.4963 150.06 30.3856Z" fill="#EA2636"/>
<path d="M179.778 57.3413C179.956 57.3413 180.045 57.42 180.045 57.5747C180.045 57.708 180.017 57.896 179.961 58.1413C179.906 58.384 179.789 58.74 179.612 59.2053C179.434 59.648 179.262 60.0093 179.096 60.2867C178.93 60.564 178.757 60.7253 178.581 60.7693C176.561 61.1907 174.942 61.624 173.722 62.068C172.501 62.5107 171.558 62.9173 170.893 63.2827C170.226 63.648 169.773 63.948 169.529 64.1813C169.284 64.4147 169.117 64.5307 169.029 64.5307C168.852 64.5307 168.741 64.3413 168.696 63.9653C168.652 63.588 168.63 63.1653 168.63 62.7C168.63 62.456 168.824 62.1053 169.212 61.6507C169.6 61.1973 170.149 60.748 170.86 60.304C170.082 59.992 169.434 59.5333 168.913 58.9227C168.39 58.3133 168.13 57.6627 168.13 56.976C168.13 56.1547 168.325 55.356 168.713 54.58C169.101 53.8027 169.612 53.1093 170.244 52.5C170.876 51.8893 171.586 51.396 172.374 51.0187C173.161 50.6413 173.944 50.4533 174.72 50.4533C175.562 50.4533 176.256 50.6307 176.8 50.9853C177.344 51.34 177.616 51.7613 177.616 52.2507C177.616 52.8267 177.404 53.5587 176.982 54.4467C176.85 54.6013 176.738 54.68 176.65 54.68C176.517 54.68 176.394 54.6187 176.284 54.496C176.173 54.3733 176.024 54.2413 175.834 54.096C175.646 53.952 175.397 53.8187 175.086 53.6987C174.776 53.576 174.354 53.5147 173.821 53.5147C173.489 53.5147 173.161 53.5693 172.84 53.6813C172.518 53.792 172.229 53.9467 171.974 54.1467C171.72 54.3467 171.52 54.568 171.376 54.8133C171.23 55.056 171.16 55.312 171.16 55.5787C171.16 55.9547 171.314 56.2987 171.625 56.6093C171.936 56.9213 172.306 57.1813 172.74 57.392C173.172 57.6013 173.628 57.768 174.105 57.8907C174.581 58.0133 174.974 58.0747 175.285 58.0747C175.685 58.0747 176.129 58.036 176.617 57.9573C177.105 57.8787 177.565 57.796 177.998 57.708C178.43 57.6187 178.808 57.536 179.13 57.4587C179.45 57.38 179.668 57.3413 179.778 57.3413ZM186.401 0.266673C186.534 0.0906728 186.668 0 186.801 0C187.022 0 187.133 0.100008 187.133 0.300008C187.177 0.744008 187.25 1.144 187.35 1.49733C187.449 1.85333 187.616 2.21334 187.849 2.58001C188.082 2.94534 188.392 3.34533 188.781 3.77733C189.169 4.20933 189.685 4.73734 190.329 5.35867C190.64 5.62534 190.838 5.85867 190.928 6.05733C191.016 6.25733 191.06 6.48 191.06 6.72267C191.06 7.012 190.994 7.368 190.861 7.788C190.728 8.20934 190.561 8.62 190.361 9.02C190.162 9.41867 189.94 9.78001 189.696 10.1C189.452 10.424 189.218 10.628 188.997 10.716C189.108 11.9813 189.236 13.2787 189.38 14.6107C189.524 15.9413 189.657 17.2573 189.778 18.5533C189.901 19.852 190.006 21.1 190.096 22.2987C190.184 23.496 190.228 24.5933 190.228 25.592C190.228 26.7027 190.15 27.9787 189.996 29.42C189.84 30.8627 189.497 32.3813 188.964 33.98C188.432 35.5773 187.67 37.1853 186.684 38.8053C185.697 40.424 184.372 41.9667 182.708 43.4307C181.11 44.828 179.373 45.916 177.5 46.6933C175.624 47.4693 173.522 48.068 171.193 48.4893C170.482 48.6227 169.684 48.7613 168.796 48.9053C167.909 49.0493 167.021 49.1827 166.134 49.3053C165.246 49.4267 164.409 49.5213 163.621 49.588C162.834 49.6533 162.185 49.688 161.674 49.688C161.452 49.688 161.292 49.5547 161.192 49.288C161.092 49.0227 161.042 48.656 161.042 48.1907C161.042 47.8573 161.086 47.6187 161.174 47.4747C161.264 47.3307 161.397 47.236 161.574 47.192C163.305 46.7253 165.025 46.2 166.733 45.6107C168.441 45.024 170.1 44.3693 171.708 43.6467C173.317 42.9253 174.853 42.1387 176.317 41.284C177.781 40.4293 179.146 39.504 180.412 38.5053C180.212 37.6187 179.989 36.7253 179.745 35.8267C179.501 34.9267 179.18 33.9747 178.78 32.964C178.381 31.9547 177.865 30.8507 177.233 29.652C176.601 28.4547 175.785 27.1013 174.786 25.592C173.854 24.2613 172.845 22.9293 171.758 21.5987C170.67 20.268 169.396 18.96 167.93 17.672L167.465 18.904C167.332 19.236 167.133 19.4253 166.866 19.4693C166.621 19.5147 166.4 19.448 166.2 19.2693C164.913 18.472 163.821 17.756 162.922 17.1227C162.024 16.4907 161.292 15.8747 160.725 15.276C160.16 14.6773 159.744 14.0733 159.477 13.4627C159.212 12.852 159.078 12.1813 159.078 11.4493C159.078 10.6493 159.194 9.82934 159.428 8.98534C159.661 8.14401 159.966 7.4 160.342 6.75733C160.498 6.46933 160.676 6.24133 160.876 6.07467C161.076 5.908 161.308 5.82401 161.574 5.82401C161.885 5.82401 162.368 6.024 163.022 6.424C163.676 6.82267 164.42 7.368 165.252 8.05467C166.084 8.74267 166.977 9.54667 167.93 10.468C168.885 11.388 169.833 12.3587 170.777 13.3787C171.72 14.4 172.624 15.4427 173.489 16.508C174.354 17.572 175.12 18.604 175.785 19.6027C177.028 21.488 178.058 23.2467 178.88 24.8773C179.701 26.508 180.366 28.028 180.877 29.436C181.388 30.8453 181.77 32.1547 182.025 33.364C182.28 34.5733 182.462 35.7093 182.574 36.7747C183.417 35.9093 184.11 35.1 184.654 34.3453C185.197 33.592 185.63 32.8533 185.952 32.132C186.273 31.412 186.496 30.7013 186.617 30.0027C186.74 29.304 186.801 28.5667 186.801 27.7893C186.801 27.3893 186.761 26.7853 186.684 25.976C186.606 25.1653 186.506 24.2507 186.385 23.2293C186.262 22.2093 186.124 21.1107 185.969 19.9347C185.813 18.7587 185.664 17.6 185.52 16.4573C185.374 15.3147 185.248 14.2333 185.137 13.212C185.025 12.1933 184.937 11.3053 184.87 10.5493C184.848 10.284 184.842 10.0293 184.854 9.78534C184.865 9.54001 184.881 9.29734 184.904 9.052C184.549 8.69867 184.272 8.244 184.072 7.688C183.872 7.13467 183.773 6.59067 183.773 6.05733C183.773 5.23733 184.016 4.332 184.504 3.34534C184.992 2.35867 185.625 1.33201 186.401 0.266673Z" fill="#EA2636"/>
<path d="M202.575 43.8296C202.53 44.0082 202.453 44.1402 202.342 44.2296C202.231 44.3176 201.987 44.3616 201.61 44.3616C201.233 44.3616 200.978 44.3176 200.845 44.2296C200.711 44.1402 200.634 44.0082 200.611 43.8296C200.59 43.3642 200.59 42.7656 200.611 42.0322C200.634 41.3016 200.634 40.5469 200.611 39.7696C200.546 38.1282 200.445 36.3922 200.313 34.5616C200.179 32.7322 200.023 30.8789 199.846 29.0042C199.669 27.1296 199.497 25.2656 199.33 23.4122C199.163 21.5616 199.003 19.7909 198.849 18.1042C198.693 16.4189 198.57 14.8442 198.482 13.3789C198.393 11.9136 198.349 10.6389 198.349 9.55224C198.349 8.97491 198.493 8.37624 198.782 7.75491C199.07 7.13491 199.435 6.50158 199.879 5.85758C200.234 5.32558 200.567 4.88158 200.878 4.52558C201.189 4.17224 201.466 3.99358 201.71 3.99358C201.977 3.99358 202.109 4.11624 202.109 4.36024C202.177 5.82424 202.27 7.42691 202.393 9.16957C202.514 10.9122 202.642 12.7016 202.775 14.5442C202.909 16.3856 203.047 18.2269 203.191 20.0682C203.335 21.9109 203.463 23.6682 203.574 25.3429C203.685 27.0189 203.778 28.5722 203.857 30.0029C203.934 31.4336 203.973 32.6482 203.973 33.6456C203.973 36.1322 203.818 38.2496 203.507 40.0029C203.197 41.7549 202.886 43.0309 202.575 43.8296Z" fill="#EA2636"/>
<path d="M237.819 3.6277C238.129 3.14103 238.461 2.74103 238.817 2.43037C239.172 2.1197 239.549 1.9637 239.949 1.9637C240.193 1.9637 240.481 2.03037 240.815 2.1637C241.147 2.29704 241.58 2.57437 242.112 2.9957C243.177 3.81703 243.709 4.6157 243.709 5.3917C243.709 5.63703 243.643 5.9357 243.511 6.29037C243.376 6.64637 243.155 7.0557 242.844 7.52237C242.467 8.05437 242.1 8.47037 241.745 8.76903C241.391 9.06903 241.024 9.21837 240.648 9.21837C240.403 9.21837 240.116 9.15304 239.783 9.0197C239.449 8.88637 239.017 8.60904 238.485 8.1877C238.019 7.7877 237.641 7.3877 237.353 6.98903C237.064 6.59037 236.92 6.20237 236.92 5.8237C236.92 5.53703 236.981 5.22504 237.103 4.8917C237.225 4.5597 237.464 4.13837 237.819 3.6277ZM241.313 31.9157C241.203 30.4304 241.069 28.8864 240.913 27.2904C240.759 25.693 240.625 24.129 240.515 22.5984H240.381C240.093 22.997 239.737 23.385 239.317 23.7624C238.895 24.1397 238.496 24.4504 238.119 24.6944C237.075 25.3157 236.083 25.9317 235.14 26.5424C234.197 27.1517 233.353 27.7344 232.611 28.2877C231.867 28.8437 231.235 29.3597 230.713 29.8357C230.192 30.3144 229.832 30.717 229.632 31.0504C229.987 31.4504 230.441 31.7944 230.996 32.0824C231.551 32.3717 232.145 32.6037 232.777 32.781C233.409 32.9584 234.059 33.093 234.724 33.181C235.389 33.269 236.021 33.3144 236.621 33.3144C237.397 33.3144 238.185 33.225 238.984 33.0464C239.783 32.8704 240.559 32.493 241.313 31.9157ZM230.497 4.1277C230.831 3.6397 231.175 3.2397 231.529 2.92903C231.884 2.61837 232.249 2.4637 232.627 2.4637C232.893 2.4637 233.193 2.5357 233.525 2.6797C233.859 2.8237 234.28 3.0957 234.791 3.49437C235.855 4.31703 236.388 5.11437 236.388 5.89037C236.388 6.1357 236.321 6.43437 236.188 6.78904C236.055 7.14504 235.833 7.55437 235.523 8.02104C235.145 8.5317 234.785 8.9477 234.441 9.2677C234.096 9.5917 233.725 9.7517 233.325 9.7517C233.081 9.7517 232.793 9.69037 232.46 9.5677C232.128 9.44637 231.707 9.1637 231.196 8.7197C230.708 8.34237 230.325 7.94237 230.048 7.52237C229.771 7.0997 229.632 6.70104 229.632 6.32237C229.632 6.01303 229.699 5.6917 229.832 5.35837C229.965 5.02637 230.187 4.6157 230.497 4.1277ZM252.029 44.729C250.632 44.729 249.372 44.5957 248.252 44.329C247.132 44.0624 246.144 43.569 245.291 42.8477C244.436 42.1277 243.715 41.1464 243.127 39.9037C242.539 38.6597 242.068 37.0637 241.712 35.1104H241.547C241.301 35.5544 240.997 36.0144 240.631 36.4917C240.265 36.969 239.876 37.4024 239.467 37.7904C239.056 38.1784 238.635 38.4997 238.201 38.7557C237.769 39.0104 237.353 39.1384 236.953 39.1384C232.893 39.1384 229.887 38.6837 227.935 37.773C225.983 36.8637 225.007 35.665 225.007 34.1784C225.007 33.713 225.111 33.1637 225.323 32.5317C225.533 31.8997 225.799 31.2504 226.121 30.585C226.443 29.9197 226.808 29.269 227.219 28.6384C227.629 28.005 228.035 27.445 228.433 26.957C228.944 26.3144 229.859 25.5437 231.18 24.645C232.499 23.7464 234.313 22.709 236.621 21.533L240.215 19.669C240.171 19.225 240.132 18.737 240.099 18.205C240.065 17.6717 240.048 17.2517 240.048 16.9397C240.048 16.4077 240.159 15.9144 240.381 15.4584C240.603 15.0037 240.936 14.4557 241.38 13.8117C241.691 13.369 241.973 12.9864 242.229 12.6624C242.484 12.3424 242.723 12.181 242.944 12.181C243.165 12.181 243.299 12.3357 243.344 12.6477C243.588 15.8864 243.892 19.081 244.259 22.2317C244.624 25.381 245.019 28.577 245.44 31.817C245.595 33.1917 245.856 34.3397 246.223 35.261C246.588 36.181 247.06 36.9197 247.636 37.4744C248.213 38.029 248.907 38.4224 249.716 38.6557C250.527 38.8877 251.464 39.0037 252.529 39.0037L252.029 44.729Z" fill="#EA2636"/>
<path d="M259.617 51.4845C259.928 50.9965 260.26 50.5965 260.616 50.2872C260.97 49.9752 261.348 49.8205 261.746 49.8205C261.99 49.8205 262.28 49.8872 262.613 50.0192C262.945 50.1539 263.377 50.4312 263.91 50.8512C264.976 51.6739 265.508 52.4712 265.508 53.2485C265.508 53.4925 265.441 53.7912 265.308 54.1472C265.174 54.5019 264.953 54.9125 264.642 55.3779C264.265 55.9099 263.898 56.3272 263.544 56.6259C263.189 56.9259 262.822 57.0752 262.446 57.0752C262.201 57.0752 261.913 57.0099 261.581 56.8765C261.248 56.7419 260.814 56.4645 260.282 56.0445C259.817 55.6445 259.44 55.2445 259.15 54.8459C258.862 54.4472 258.718 54.0579 258.718 53.6805C258.718 53.3925 258.78 53.0819 258.901 52.7485C259.024 52.4165 259.261 51.9952 259.617 51.4845ZM252.296 51.9832C252.628 51.4952 252.972 51.0965 253.328 50.7859C253.681 50.4739 254.048 50.3192 254.425 50.3192C254.692 50.3192 254.992 50.3925 255.324 50.5365C255.657 50.6792 256.078 50.9525 256.589 51.3512C257.653 52.1725 258.186 52.9699 258.186 53.7472C258.186 53.9912 258.12 54.2899 257.986 54.6459C257.853 55.0019 257.632 55.4112 257.321 55.8779C256.944 56.3885 256.582 56.8032 256.238 57.1245C255.894 57.4472 255.524 57.6085 255.124 57.6085C254.88 57.6085 254.592 57.5472 254.258 57.4245C253.926 57.3019 253.505 57.0192 252.994 56.5765C252.506 56.1992 252.124 55.7992 251.846 55.3779C251.569 54.9565 251.43 54.5579 251.43 54.1792C251.43 53.8685 251.497 53.5485 251.63 53.2152C251.762 52.8832 251.985 52.4712 252.296 51.9832ZM271.764 44.7299C269.634 44.7299 267.809 44.2859 266.289 43.3979C264.769 42.5112 263.677 40.9912 263.012 38.8392H262.845C262.512 39.4592 262.085 40.1032 261.564 40.7685C261.042 41.4339 260.549 41.9565 260.084 42.3325C259.572 42.7099 259.001 43.0485 258.369 43.3472C257.737 43.6472 257.065 43.8979 256.356 44.0965C255.645 44.2952 254.918 44.4525 254.176 44.5632C253.432 44.6739 252.717 44.729 252.029 44.729C251.741 44.729 251.425 44.6792 251.081 44.5792C250.737 44.4792 250.421 44.3352 250.132 44.1459C249.844 43.9579 249.6 43.7259 249.4 43.4485C249.201 43.1712 249.101 42.8539 249.101 42.4992V40.7685C249.101 40.4579 249.206 40.1912 249.417 39.9699C249.628 39.7472 249.898 39.5659 250.232 39.4205C250.565 39.2765 250.937 39.1712 251.346 39.1045C251.757 39.0379 252.162 39.0045 252.561 39.0045C253.116 39.0045 253.693 38.9552 254.292 38.8539C254.892 38.7552 255.468 38.6219 256.022 38.4565C256.577 38.2899 257.088 38.0899 257.554 37.8565C258.02 37.6232 258.42 37.3632 258.752 37.0739C259.15 36.7645 259.528 36.3032 259.884 35.6925C260.238 35.0832 260.565 34.3952 260.865 33.6299C261.165 32.8645 261.436 32.0445 261.68 31.1672C261.924 30.2899 262.146 29.4192 262.346 28.5552C262.39 28.3552 262.446 28.1939 262.512 28.0712C262.578 27.9512 262.701 27.8459 262.878 27.7552C263.056 27.6685 263.316 27.6059 263.661 27.5725C264.005 27.5392 264.476 27.5232 265.074 27.5232C265.608 27.5232 265.873 27.7445 265.873 28.1885C265.873 28.3885 265.834 28.6939 265.757 29.1045C265.678 29.5139 265.59 29.9752 265.49 30.4845C265.392 30.9952 265.28 31.5165 265.158 32.0499C265.036 32.5819 264.93 33.0699 264.841 33.5125C265.041 35.4005 265.784 36.7872 267.072 37.6739C268.358 38.5619 270.1 39.0045 272.297 39.0045L271.764 44.7299Z" fill="#EA2636"/>
<path d="M291.033 39.8036C291.321 39.7809 291.57 39.6196 291.782 39.3209C291.993 39.0209 292.098 38.6276 292.098 38.1396C291.965 37.4076 291.744 36.6089 291.433 35.7436C291.121 34.8783 290.738 34.0529 290.284 33.2636C289.829 32.4769 289.313 31.7823 288.737 31.1836C288.16 30.5849 287.538 30.1849 286.873 29.9863C286.408 29.9863 285.952 30.1129 285.509 30.3689C285.065 30.6236 284.66 30.9676 284.294 31.3996C283.928 31.8316 283.594 32.3369 283.296 32.9143C282.996 33.4916 282.757 34.0903 282.58 34.7116C283.113 35.3769 283.756 36.0036 284.51 36.5916C285.264 37.1796 286.036 37.7076 286.824 38.1716C287.61 38.6383 288.376 39.0156 289.12 39.3036C289.862 39.5929 290.501 39.7596 291.033 39.8036ZM302.182 44.7289C301.405 44.7289 300.712 44.6676 300.102 44.5463C299.492 44.4249 298.921 44.2356 298.388 43.9796C297.856 43.7249 297.357 43.3916 296.89 42.9823C296.424 42.5716 295.948 42.0783 295.46 41.4996C295.26 42.0116 295.026 42.5276 294.761 43.0489C294.494 43.5689 294.196 44.0423 293.862 44.4623C293.529 44.8849 293.169 45.2223 292.781 45.4783C292.392 45.7329 291.998 45.8609 291.598 45.8609C290.645 45.8609 289.664 45.6889 288.653 45.3436C287.644 44.9996 286.641 44.5463 285.642 43.9796C284.644 43.4143 283.672 42.7609 282.729 42.0169C281.786 41.2743 280.916 40.5129 280.117 39.7369C279.606 40.7343 279.041 41.5556 278.421 42.1996C277.798 42.8423 277.14 43.3529 276.44 43.7303C275.741 44.1089 274.997 44.3689 274.21 44.5116C273.422 44.6569 272.608 44.7299 271.764 44.7299C271.477 44.7299 271.16 44.6783 270.816 44.5796C270.472 44.4796 270.156 44.3343 269.866 44.1463C269.58 43.9583 269.334 43.7249 269.136 43.4476C268.936 43.1703 268.836 42.8543 268.836 42.4983V40.7689C268.836 40.4583 268.941 40.1916 269.152 39.9703C269.364 39.7476 269.634 39.5649 269.968 39.4209C270.3 39.2756 270.672 39.1703 271.082 39.1049C271.493 39.0383 271.897 39.0045 272.297 39.0045C273.738 39.0045 274.981 38.7676 276.024 38.2889C277.066 37.8129 277.909 36.9423 278.553 35.6769C278.93 34.9903 279.269 34.3076 279.568 33.6303C279.868 32.9529 280.205 32.2823 280.584 31.6156C281.426 29.6649 282.464 28.1103 283.696 26.9569C284.926 25.8036 286.241 25.2263 287.638 25.2263C288.592 25.2263 289.413 25.4769 290.101 25.9756C290.789 26.4743 291.444 27.1636 292.065 28.0396C292.686 28.9156 293.318 29.9369 293.962 31.1009C294.605 32.2663 295.381 33.5129 296.292 34.8449C296.69 35.5996 297.085 36.2423 297.473 36.7756C297.861 37.3076 298.293 37.7396 298.77 38.0729C299.248 38.4049 299.797 38.6449 300.418 38.7876C301.04 38.9329 301.805 39.0036 302.714 39.0036L302.182 44.7289Z" fill="#EA2636"/>
<path d="M312.365 11.8153C312.477 13.5233 312.61 15.3033 312.766 17.1567C312.92 19.01 313.07 20.8287 313.214 22.6153C313.358 24.3993 313.481 26.1087 313.581 27.7393C313.68 29.37 313.729 30.83 313.729 32.1167C313.729 33.1593 313.636 34.202 313.448 35.2433C313.258 36.2873 313.014 37.258 312.716 38.1567C312.416 39.0553 312.089 39.8433 311.733 40.518C311.378 41.1953 311.034 41.6887 310.701 42.0007C309.748 42.8433 308.54 43.51 307.073 43.9967C305.61 44.4847 303.98 44.73 302.182 44.73C301.893 44.73 301.578 44.678 301.233 44.5793C300.89 44.4793 300.573 44.3353 300.284 44.146C299.998 43.958 299.753 43.726 299.553 43.4487C299.353 43.1713 299.253 42.854 299.253 42.4993V40.7687C299.253 40.458 299.36 40.1913 299.569 39.97C299.781 39.7473 300.053 39.5647 300.386 39.4207C300.718 39.2767 301.089 39.1713 301.501 39.1047C301.91 39.038 302.316 39.0047 302.714 39.0047C304.422 39.0047 305.932 38.778 307.24 38.322C308.55 37.8673 309.56 37.1087 310.269 36.0433C310.269 35.3993 310.258 34.7567 310.236 34.1127C310.214 33.4687 310.202 32.826 310.202 32.182C310.024 30.4527 309.841 28.7047 309.654 26.9407C309.464 25.1767 309.286 23.4527 309.12 21.766C308.954 20.0793 308.8 18.4433 308.654 16.8567C308.51 15.2713 308.405 13.7887 308.338 12.414C308.316 12.0367 308.294 11.6607 308.273 11.2833C308.25 10.9047 308.25 10.5287 308.273 10.1513C307.894 9.79535 307.617 9.33668 307.441 8.77001C307.262 8.20468 307.174 7.66735 307.174 7.15535C307.174 6.29002 307.436 5.34735 307.956 4.32735C308.477 3.30601 309.093 2.31935 309.802 1.36468C309.936 1.18735 310.058 1.09935 310.17 1.09935C310.392 1.09935 310.502 1.19801 310.502 1.39935C310.546 1.84335 310.617 2.24201 310.72 2.59668C310.818 2.95268 310.985 3.31135 311.218 3.67801C311.45 4.04468 311.761 4.44335 312.149 4.87668C312.537 5.30868 313.053 5.83668 313.697 6.45668C314.008 6.74468 314.206 6.99002 314.296 7.18868C314.385 7.38868 314.429 7.60068 314.429 7.82202C314.429 8.11001 314.362 8.46468 314.229 8.88735C314.097 9.30735 313.93 9.71935 313.729 10.118C313.53 10.5167 313.308 10.878 313.065 11.1993C312.821 11.5207 312.586 11.7273 312.365 11.8153Z" fill="#EA2636"/>
<path d="M333.431 44.7293C331.811 44.7293 330.419 44.5067 329.255 44.0627C328.09 43.62 327.121 42.9307 326.343 42C325.566 41.068 324.961 39.8813 324.529 38.4387C324.097 36.996 323.813 35.2773 323.681 33.28C323.525 31.2613 323.386 29.176 323.265 27.024C323.142 24.872 323.01 22.7307 322.865 20.6C322.721 18.472 322.561 16.3853 322.383 14.344C322.205 12.304 321.995 10.3627 321.75 8.52001C321.75 7.83201 321.883 7.17868 322.149 6.55601C322.415 5.93601 322.771 5.26934 323.214 4.56001C323.615 3.91734 323.963 3.40668 324.263 3.02934C324.563 2.65201 324.813 2.46401 325.013 2.46401C325.278 2.46401 325.466 2.59601 325.578 2.86268C325.777 3.88268 325.933 5.02668 326.043 6.29068C326.154 7.55468 326.242 8.79868 326.31 10.0187L327.407 31.3827C327.542 33.9347 328.167 35.8427 329.289 37.108C330.409 38.372 331.966 39.004 333.963 39.004L333.431 44.7293Z" fill="#EA2636"/>
<path d="M363.717 44.7293C361.918 44.7293 360.305 44.6293 358.874 44.4293C357.443 44.2293 356.145 43.9293 354.979 43.5307C353.815 43.132 352.755 42.6213 351.802 42C350.849 41.3787 349.961 40.6467 349.139 39.804C347.986 40.58 346.815 41.2733 345.629 41.8827C344.442 42.4933 343.205 43.0093 341.918 43.4307C340.631 43.8533 339.283 44.1747 337.874 44.396C336.466 44.6173 334.983 44.7293 333.431 44.7293C333.143 44.7293 332.827 44.6787 332.482 44.58C332.138 44.48 331.823 44.3347 331.534 44.1467C331.246 43.9587 331.002 43.7253 330.802 43.448C330.602 43.1707 330.503 42.8547 330.503 42.4987V40.768C330.503 40.4587 330.609 40.192 330.818 39.9707C331.03 39.748 331.301 39.5653 331.634 39.4213C331.967 39.276 332.339 39.1707 332.749 39.104C333.159 39.0373 333.565 39.004 333.965 39.004C335.45 39.004 336.809 38.9 338.041 38.6893C339.273 38.4787 340.387 38.2053 341.386 37.872C342.383 37.54 343.271 37.1747 344.047 36.7747C344.825 36.3747 345.501 35.9987 346.078 35.644C345.723 35.356 345.346 35.0493 344.946 34.728C344.547 34.4067 344.135 34.1067 343.715 33.8293C343.294 33.552 342.866 33.3253 342.434 33.1467C342.001 32.9707 341.574 32.8813 341.153 32.8813C340.886 32.8813 340.631 32.9587 340.387 33.1133C340.142 33.2693 339.855 33.3467 339.522 33.3467C339.011 33.3467 338.755 32.9707 338.755 32.2147C338.755 31.9053 338.795 31.4947 338.873 30.984C338.95 30.4747 339.073 29.9587 339.239 29.436C339.406 28.916 339.61 28.4267 339.855 27.9733C340.098 27.5187 340.387 27.1907 340.719 26.9907C341.651 26.392 342.689 25.8747 343.831 25.4427C344.974 25.0107 346.266 24.7947 347.709 24.7947C348.795 24.7947 349.899 24.9387 351.021 25.2267C352.139 25.516 353.155 25.9093 354.066 26.408C354.974 26.908 355.723 27.4947 356.311 28.172C356.899 28.8493 357.193 29.564 357.193 30.3187C357.193 30.784 357.11 31.2893 356.943 31.832C356.778 32.376 356.533 32.9147 356.211 33.4467C355.89 33.9787 355.497 34.4893 355.03 34.9787C354.565 35.4667 354.031 35.9093 353.433 36.3093C353.921 36.7747 354.547 37.1747 355.313 37.5067C356.078 37.84 356.927 38.1173 357.858 38.3387C358.791 38.5613 359.799 38.728 360.887 38.8387C361.974 38.9493 363.106 39.004 364.282 39.004L363.717 44.7293Z" fill="#EA2636"/>
<path d="M373.9 11.8153C374.011 13.5233 374.144 15.3033 374.3 17.1567C374.455 19.01 374.604 20.8287 374.749 22.6153C374.892 24.3993 375.015 26.1087 375.115 27.7393C375.215 29.37 375.264 30.83 375.264 32.1167C375.264 33.1593 375.169 34.202 374.983 35.2433C374.793 36.2873 374.548 37.258 374.249 38.1567C373.949 39.0553 373.623 39.8433 373.267 40.518C372.913 41.1953 372.569 41.6887 372.236 42.0007C371.281 42.8433 370.073 43.51 368.608 43.9967C367.145 44.4847 365.514 44.7293 363.717 44.7293C363.429 44.7293 363.112 44.678 362.768 44.5793C362.425 44.4793 362.108 44.3353 361.819 44.146C361.532 43.958 361.287 43.726 361.088 43.4487C360.887 43.1713 360.788 42.854 360.788 42.4993V40.7687C360.788 40.458 360.893 40.1913 361.104 39.97C361.316 39.7473 361.587 39.5647 361.92 39.4207C362.252 39.2767 362.624 39.1713 363.035 39.1047C363.445 39.038 363.849 39.0047 364.249 39.0047C365.957 39.0047 367.465 38.778 368.775 38.322C370.084 37.8673 371.093 37.1087 371.804 36.0433C371.804 35.3993 371.792 34.7567 371.769 34.1127C371.748 33.4687 371.737 32.826 371.737 32.182C371.559 30.4527 371.376 28.7047 371.188 26.9407C370.999 25.1767 370.821 23.4527 370.655 21.766C370.488 20.0793 370.333 18.4433 370.189 16.8567C370.044 15.2713 369.94 13.7887 369.872 12.414C369.851 12.0367 369.828 11.6607 369.807 11.2833C369.784 10.9047 369.784 10.5287 369.807 10.1513C369.428 9.79535 369.152 9.33668 368.975 8.77001C368.797 8.20468 368.708 7.66735 368.708 7.15535C368.708 6.29002 368.969 5.34735 369.489 4.32735C370.012 3.30601 370.627 2.31935 371.337 1.36468C371.471 1.18735 371.593 1.09935 371.704 1.09935C371.925 1.09935 372.037 1.19801 372.037 1.39935C372.081 1.84335 372.152 2.24201 372.253 2.59668C372.353 2.95268 372.519 3.31135 372.752 3.67801C372.984 4.04468 373.296 4.44335 373.684 4.87668C374.072 5.30868 374.588 5.83668 375.231 6.45668C375.541 6.74468 375.741 6.99002 375.829 7.18868C375.919 7.38868 375.964 7.60068 375.964 7.82202C375.964 8.11001 375.897 8.46468 375.763 8.88735C375.631 9.30735 375.464 9.71935 375.264 10.118C375.065 10.5167 374.843 10.878 374.599 11.1993C374.355 11.5207 374.121 11.7273 373.9 11.8153Z" fill="#EA2636"/>
<path d="M387.512 43.8296C387.468 44.0082 387.389 44.1402 387.279 44.2296C387.168 44.3176 386.924 44.3616 386.547 44.3616C386.169 44.3616 385.915 44.3176 385.781 44.2296C385.649 44.1402 385.571 44.0082 385.548 43.8296C385.527 43.3642 385.527 42.7656 385.548 42.0322C385.571 41.3016 385.571 40.5469 385.548 39.7696C385.483 38.1282 385.381 36.3922 385.249 34.5616C385.116 32.7322 384.96 30.8789 384.783 29.0042C384.605 27.1296 384.433 25.2656 384.267 23.4122C384.1 21.5616 383.939 19.7909 383.784 18.1042C383.629 16.4189 383.507 14.8442 383.419 13.3789C383.329 11.9136 383.285 10.6389 383.285 9.55224C383.285 8.97491 383.429 8.37624 383.717 7.75491C384.007 7.13491 384.373 6.50158 384.817 5.85758C385.171 5.32558 385.504 4.88158 385.815 4.52558C386.125 4.17224 386.403 3.99358 386.647 3.99358C386.913 3.99358 387.045 4.11624 387.045 4.36024C387.112 5.82424 387.207 7.42691 387.328 9.16957C387.451 10.9122 387.579 12.7016 387.711 14.5442C387.845 16.3856 387.984 18.2269 388.128 20.0682C388.271 21.9109 388.399 23.6682 388.511 25.3429C388.621 27.0189 388.715 28.5722 388.793 30.0029C388.872 31.4336 388.909 32.6482 388.909 33.6456C388.909 36.1322 388.755 38.2496 388.444 40.0029C388.133 41.7549 387.821 43.0309 387.512 43.8296Z" fill="#EA2636"/>
<path d="M435.9 16.84C436.211 16.3533 436.544 15.9533 436.899 15.6427C437.255 15.332 437.632 15.176 438.031 15.176C438.275 15.176 438.563 15.2427 438.896 15.376C439.228 15.5093 439.661 15.7867 440.195 16.208C441.259 17.0293 441.791 17.828 441.791 18.604C441.791 18.848 441.724 19.1467 441.592 19.5027C441.459 19.8587 441.236 20.268 440.927 20.7347C440.548 21.2653 440.183 21.6827 439.827 21.9813C439.473 22.2813 439.107 22.4307 438.729 22.4307C438.484 22.4307 438.197 22.3653 437.864 22.232C437.532 22.0973 437.099 21.8213 436.567 21.4C436.1 21 435.723 20.6 435.435 20.2013C435.147 19.8027 435.001 19.4147 435.001 19.036C435.001 18.7493 435.063 18.4373 435.185 18.104C435.307 17.772 435.545 17.3507 435.9 16.84ZM428.58 17.34C428.912 16.852 429.256 16.452 429.611 16.1413C429.965 15.8307 430.331 15.676 430.708 15.676C430.976 15.676 431.275 15.748 431.607 15.892C431.94 16.036 432.361 16.308 432.872 16.7067C433.937 17.528 434.469 18.3267 434.469 19.1027C434.469 19.348 434.403 19.6467 434.269 20.0013C434.137 20.3573 433.915 20.7667 433.604 21.2333C433.227 21.744 432.867 22.16 432.523 22.48C432.179 22.804 431.808 22.964 431.408 22.964C431.163 22.964 430.875 22.9027 430.541 22.78C430.209 22.6587 429.788 22.376 429.277 21.932C428.789 21.5547 428.407 21.1547 428.129 20.7347C427.852 20.312 427.713 19.9133 427.713 19.5347C427.713 19.2253 427.78 18.904 427.913 18.5707C428.047 18.2387 428.268 17.828 428.58 17.34ZM456.568 41.2347C448.447 44.4747 439.439 46.092 429.544 46.092C425.751 46.092 422.599 45.744 420.093 45.044C417.585 44.3467 415.577 43.4093 414.069 42.2333C412.56 41.0574 411.495 39.6987 410.873 38.156C410.253 36.6147 409.941 35.0107 409.941 33.3467C409.941 31.5053 410.159 29.8587 410.592 28.4053C411.024 26.952 411.517 25.6933 412.072 24.628C412.227 24.3173 412.367 24.0613 412.488 23.8627C412.609 23.6627 412.743 23.5133 412.887 23.4133C413.032 23.312 413.208 23.2467 413.42 23.2133C413.631 23.18 413.903 23.1627 414.236 23.1627C414.723 23.1627 415.061 23.2133 415.251 23.312C415.439 23.4133 415.533 23.596 415.533 23.8627C415.533 24.0613 415.439 24.372 415.251 24.7947C415.061 25.216 414.863 25.7253 414.651 26.324C414.44 26.924 414.241 27.6053 414.052 28.3707C413.864 29.1373 413.769 29.976 413.769 30.884C413.769 32.1707 414.063 33.3747 414.651 34.4947C415.239 35.616 416.209 36.5867 417.563 37.408C418.917 38.228 420.692 38.8707 422.888 39.3373C425.085 39.804 427.791 40.036 431.008 40.036C432.428 40.036 433.909 39.9853 435.451 39.8867C436.993 39.7867 438.545 39.6427 440.111 39.4533C441.675 39.2653 443.216 39.0427 444.736 38.788C446.256 38.5347 447.704 38.2507 449.08 37.94C450.455 37.6293 451.736 37.2973 452.924 36.9413C454.109 36.5867 455.137 36.208 456.001 35.8107C455.98 35.0773 455.891 34.3347 455.736 33.58C455.58 32.8253 455.371 32.0773 455.103 31.3333C454.837 30.5907 454.532 29.8747 454.188 29.188C453.844 28.5 453.493 27.856 453.14 27.256C453.007 27.0133 452.901 26.78 452.823 26.5573C452.745 26.336 452.707 26.1027 452.707 25.86C452.707 25.4373 452.801 24.956 452.989 24.412C453.179 23.868 453.407 23.3587 453.672 22.88C453.937 22.404 454.215 22.004 454.504 21.6827C454.792 21.3613 455.037 21.2 455.236 21.2C455.481 21.2 455.691 21.2947 455.869 21.4827C456.045 21.672 456.268 21.9867 456.535 22.4307C456.933 23.1427 457.311 23.9227 457.665 24.7773C458.02 25.632 458.336 26.52 458.615 27.44C458.891 28.3613 459.107 29.2987 459.263 30.252C459.419 31.2053 459.496 32.1387 459.496 33.0467C459.496 34.0453 459.391 35.0773 459.18 36.1427C458.969 37.2067 458.675 38.228 458.299 39.204C458.12 39.648 457.881 40.0587 457.583 40.4347C457.283 40.812 456.944 41.08 456.568 41.2347Z" fill="#EA2636"/>
<path d="M470.478 43.8296C470.434 44.0082 470.356 44.1402 470.245 44.2296C470.134 44.3176 469.89 44.3616 469.513 44.3616C469.136 44.3616 468.881 44.3176 468.748 44.2296C468.616 44.1402 468.537 44.0082 468.514 43.8296C468.493 43.3642 468.493 42.7656 468.514 42.0322C468.537 41.3016 468.537 40.5469 468.514 39.7696C468.449 38.1282 468.348 36.3922 468.216 34.5616C468.082 32.7322 467.926 30.8789 467.749 29.0042C467.572 27.1296 467.4 25.2656 467.233 23.4122C467.066 21.5616 466.905 19.7909 466.75 18.1042C466.596 16.4189 466.473 14.8442 466.385 13.3789C466.296 11.9136 466.252 10.6389 466.252 9.55224C466.252 8.97491 466.396 8.37624 466.684 7.75491C466.973 7.13491 467.34 6.50158 467.784 5.85758C468.137 5.32558 468.47 4.88158 468.781 4.52558C469.092 4.17224 469.369 3.99358 469.613 3.99358C469.88 3.99358 470.012 4.11624 470.012 4.36024C470.078 5.82424 470.173 7.42691 470.294 9.16957C470.417 10.9122 470.545 12.7016 470.677 14.5442C470.812 16.3856 470.95 18.2269 471.094 20.0682C471.237 21.9109 471.365 23.6682 471.477 25.3429C471.588 27.0189 471.681 28.5722 471.76 30.0029C471.838 31.4336 471.876 32.6482 471.876 33.6456C471.876 36.1322 471.721 38.2496 471.41 40.0029C471.1 41.7549 470.788 43.0309 470.478 43.8296Z" fill="#EA2636"/>
<path d="M493.575 29.5862C493.397 29.3422 493.269 29.1262 493.193 28.9382C493.115 28.7488 493.076 28.5208 493.076 28.2555C493.076 27.8115 493.143 27.2955 493.275 26.7075C493.409 26.1195 493.575 25.5595 493.775 25.0275C493.975 24.4955 494.196 24.0462 494.44 23.6795C494.684 23.3128 494.917 23.1302 495.14 23.1302C495.383 23.1302 495.595 23.2408 495.771 23.4622C495.949 23.6848 496.159 23.9502 496.404 24.2622C497.003 25.1062 497.58 26.0488 498.135 27.0902C498.689 28.1328 499.183 29.2595 499.615 30.4688C500.048 31.6768 500.392 32.9755 500.648 34.3622C500.901 35.7488 501.031 37.2075 501.031 38.7382C501.031 40.1142 500.857 41.5608 500.515 43.0808C500.169 44.6022 499.683 46.0995 499.049 47.5742C498.417 49.0502 497.652 50.4582 496.753 51.8008C495.855 53.1435 494.856 54.3248 493.759 55.3448C492.66 56.3648 491.479 57.1755 490.213 57.7755C488.949 58.3742 487.617 58.6728 486.22 58.6728C484.756 58.6728 483.192 58.4502 481.528 58.0075C479.864 57.5635 478.156 56.8315 476.403 55.8115C476.113 55.6328 475.876 55.4782 475.688 55.3448C475.499 55.2128 475.355 55.0675 475.255 54.9128C475.156 54.7568 475.083 54.5675 475.039 54.3462C474.993 54.1248 474.972 53.8355 474.972 53.4822C474.972 52.5715 475.193 52.1168 475.637 52.1168C475.837 52.1168 476.137 52.2222 476.536 52.4328C476.936 52.6435 477.412 52.8835 477.967 53.1488C478.521 53.4142 479.149 53.6528 479.847 53.8648C480.547 54.0742 481.307 54.1795 482.127 54.1795C483.501 54.1795 484.851 53.9142 486.171 53.3822C487.491 52.8488 488.739 52.1622 489.915 51.3182C491.091 50.4742 492.172 49.5328 493.159 48.4902C494.147 47.4475 494.995 46.4035 495.705 45.3608C496.415 44.3182 496.969 43.3368 497.369 42.4155C497.769 41.4955 497.968 40.7342 497.968 40.1355C497.968 39.5822 497.84 38.8662 497.585 37.9902C497.329 37.1142 496.997 36.1875 496.588 35.2115C496.176 34.2342 495.711 33.2528 495.189 32.2662C494.668 31.2795 494.129 30.3862 493.575 29.5862Z" fill="#EA2636"/>
<path d="M519.366 44.7293C517.746 44.7293 516.354 44.5067 515.19 44.0627C514.025 43.62 513.054 42.9307 512.278 42C511.501 41.068 510.896 39.8813 510.464 38.4387C510.032 36.996 509.749 35.2773 509.616 33.28C509.46 31.2613 509.321 29.176 509.2 27.024C509.077 24.872 508.945 22.7307 508.8 20.6C508.656 18.472 508.496 16.3853 508.318 14.344C508.14 12.304 507.929 10.3627 507.685 8.52001C507.685 7.83201 507.818 7.17868 508.085 6.55601C508.35 5.93601 508.706 5.26934 509.15 4.56001C509.549 3.91734 509.898 3.40668 510.198 3.02934C510.498 2.65201 510.746 2.46401 510.948 2.46401C511.213 2.46401 511.401 2.59601 511.512 2.86268C511.713 3.88268 511.868 5.02668 511.978 6.29068C512.089 7.55468 512.177 8.79868 512.245 10.0187L513.342 31.3827C513.476 33.9347 514.102 35.8427 515.224 37.108C516.342 38.372 517.902 39.004 519.898 39.004L519.366 44.7293Z" fill="#EA2636"/>
<path d="M530.282 33.4142C530.859 34.0129 531.54 34.5782 532.328 35.1102C533.116 35.6436 533.92 36.1142 534.742 36.5249C535.562 36.9369 536.344 37.2689 537.087 37.5236C537.831 37.7782 538.458 37.9182 538.968 37.9409C539.323 37.9182 539.556 37.6636 539.667 37.1742C539.711 36.8862 539.728 36.5982 539.716 36.3089C539.706 36.0209 539.678 35.7209 539.634 35.4102C539.567 34.7676 539.412 34.0676 539.168 33.3142C538.923 32.5596 538.59 31.8609 538.17 31.2182C537.748 30.5742 537.238 30.0356 536.639 29.6036C536.039 29.1702 535.34 28.9542 534.542 28.9542C533.743 28.9542 532.978 29.2809 532.246 29.9369C531.514 30.5902 530.859 31.7502 530.282 33.4142ZM519.898 39.004C520.52 39.004 521.136 38.9382 521.746 38.8049C522.356 38.6716 522.938 38.4556 523.492 38.1569C524.047 37.8569 524.558 37.4622 525.024 36.9742C525.49 36.4876 525.89 35.8769 526.222 35.1449C526.71 33.9022 527.282 32.6089 527.935 31.2676C528.59 29.9249 529.334 28.6942 530.166 27.5729C530.998 26.4529 531.919 25.5316 532.927 24.8116C533.936 24.0902 535.04 23.7289 536.239 23.7289C537.127 23.7289 537.931 23.9182 538.651 24.2942C539.372 24.6716 540.022 25.1876 540.599 25.8422C541.176 26.4982 541.675 27.2742 542.096 28.1716C542.518 29.0702 542.872 30.0422 543.162 31.0836C543.383 31.8836 543.566 32.6142 543.71 33.2796C543.855 33.9449 543.927 34.6222 543.927 35.3102C543.927 35.8876 543.838 36.5916 543.66 37.4236C543.482 38.2556 543.239 39.0822 542.928 39.9036C542.728 40.3916 542.495 40.8636 542.23 41.3182C541.964 41.7729 541.68 42.1716 541.38 42.5156C541.082 42.8596 540.759 43.1316 540.416 43.3302C540.072 43.5302 539.711 43.6302 539.334 43.6302C538.558 43.6302 537.692 43.5022 536.739 43.2476C535.784 42.9942 534.803 42.6382 533.794 42.1822C532.783 41.7276 531.78 41.2009 530.782 40.6022C529.783 40.0022 528.851 39.3596 527.986 38.6716C526.987 40.7582 525.734 42.2876 524.226 43.2649C522.716 44.2409 521.097 44.7293 519.366 44.7293C519.08 44.7293 518.762 44.6782 518.419 44.5796C518.075 44.4796 517.758 44.3342 517.47 44.1462C517.182 43.9582 516.936 43.7249 516.738 43.4476C516.536 43.1702 516.438 42.8542 516.438 42.4982V40.7689C516.438 40.4582 516.543 40.1916 516.754 39.9702C516.966 39.7476 517.236 39.5649 517.57 39.4209C517.902 39.2756 518.274 39.1702 518.684 39.1049C519.095 39.0382 519.498 39.004 519.898 39.004Z" fill="#EA2636"/>
<path d="M569.154 57.3413C569.331 57.3413 569.419 57.42 569.419 57.5747C569.419 57.708 569.393 57.896 569.337 58.1413C569.282 58.384 569.165 58.74 568.987 59.2053C568.809 59.648 568.638 60.0093 568.471 60.2867C568.305 60.564 568.133 60.7253 567.957 60.7693C565.937 61.1907 564.317 61.624 563.097 62.068C561.877 62.5107 560.934 62.9173 560.267 63.2827C559.602 63.648 559.147 63.948 558.905 64.1813C558.659 64.4147 558.493 64.5307 558.403 64.5307C558.227 64.5307 558.115 64.3413 558.071 63.9653C558.026 63.588 558.005 63.1653 558.005 62.7C558.005 62.456 558.198 62.1053 558.587 61.6507C558.975 61.1973 559.523 60.748 560.235 60.304C559.458 59.992 558.809 59.5333 558.289 58.9227C557.766 58.3133 557.506 57.6627 557.506 56.976C557.506 56.1547 557.699 55.356 558.087 54.58C558.475 53.8027 558.986 53.1093 559.619 52.5C560.251 51.8893 560.961 51.396 561.749 51.0187C562.535 50.6413 563.318 50.4533 564.095 50.4533C564.938 50.4533 565.63 50.6307 566.175 50.9853C566.718 51.34 566.99 51.7613 566.99 52.2507C566.99 52.8267 566.779 53.5587 566.358 54.4467C566.225 54.6013 566.114 54.68 566.025 54.68C565.893 54.68 565.77 54.6187 565.659 54.496C565.549 54.3733 565.398 54.2413 565.21 54.096C565.021 53.952 564.771 53.8187 564.461 53.6987C564.15 53.576 563.73 53.5147 563.197 53.5147C562.863 53.5147 562.535 53.5693 562.215 53.6813C561.893 53.792 561.605 53.9467 561.349 54.1467C561.094 54.3467 560.895 54.568 560.75 54.8133C560.606 55.056 560.534 55.312 560.534 55.5787C560.534 55.9547 560.689 56.2987 561.001 56.6093C561.31 56.9213 561.682 57.1813 562.115 57.392C562.547 57.6013 563.002 57.768 563.479 57.8907C563.957 58.0133 564.349 58.0747 564.661 58.0747C565.061 58.0747 565.505 58.036 565.993 57.9573C566.479 57.8787 566.941 57.796 567.373 57.708C567.806 57.6187 568.182 57.536 568.505 57.4587C568.826 57.38 569.042 57.3413 569.154 57.3413ZM575.777 0.266673C575.909 0.0906728 576.042 0 576.177 0C576.398 0 576.509 0.100008 576.509 0.300008C576.553 0.744008 576.626 1.144 576.725 1.49733C576.825 1.85333 576.991 2.21334 577.225 2.58001C577.458 2.94534 577.767 3.34533 578.155 3.77733C578.543 4.20933 579.059 4.73734 579.703 5.35867C580.014 5.62534 580.214 5.85867 580.302 6.05733C580.391 6.25733 580.435 6.48 580.435 6.72267C580.435 7.012 580.369 7.368 580.237 7.788C580.103 8.20934 579.937 8.62 579.737 9.02C579.537 9.41867 579.315 9.78001 579.07 10.1C578.827 10.424 578.594 10.628 578.373 10.716C578.483 11.9813 578.61 13.2787 578.754 14.6107C578.899 15.9413 579.031 17.2573 579.154 18.5533C579.277 19.852 579.382 21.1 579.47 22.2987C579.559 23.496 579.603 24.5933 579.603 25.592C579.603 26.7027 579.525 27.9787 579.37 29.42C579.215 30.8627 578.871 32.3813 578.339 33.98C577.806 35.5773 577.046 37.1853 576.059 38.8053C575.071 40.424 573.746 41.9667 572.082 43.4307C570.485 44.828 568.749 45.916 566.874 46.6933C564.999 47.4693 562.898 48.068 560.567 48.4893C559.857 48.6227 559.059 48.7613 558.171 48.9053C557.283 49.0493 556.397 49.1827 555.509 49.3053C554.622 49.4267 553.783 49.5213 552.997 49.588C552.209 49.6533 551.559 49.688 551.05 49.688C550.827 49.688 550.667 49.5547 550.567 49.288C550.466 49.0227 550.417 48.656 550.417 48.1907C550.417 47.8573 550.461 47.6187 550.55 47.4747C550.638 47.3307 550.771 47.236 550.95 47.192C552.681 46.7253 554.399 46.2 556.109 45.6107C557.815 45.024 559.474 44.3693 561.083 43.6467C562.691 42.9253 564.229 42.1387 565.693 41.284C567.157 40.4293 568.521 39.504 569.786 38.5053C569.586 37.6187 569.363 36.7253 569.121 35.8267C568.875 34.9267 568.555 33.9747 568.155 32.964C567.755 31.9547 567.239 30.8507 566.607 29.652C565.975 28.4547 565.161 27.1013 564.162 25.592C563.23 24.2613 562.221 22.9293 561.133 21.5987C560.046 20.268 558.77 18.96 557.306 17.672L556.841 18.904C556.707 19.236 556.507 19.4253 556.241 19.4693C555.997 19.5147 555.775 19.448 555.575 19.2693C554.289 18.472 553.195 17.756 552.297 17.1227C551.399 16.4907 550.667 15.8747 550.101 15.276C549.535 14.6773 549.119 14.0733 548.853 13.4627C548.586 12.852 548.454 12.1813 548.454 11.4493C548.454 10.6493 548.57 9.82934 548.802 8.98534C549.035 8.14401 549.341 7.4 549.718 6.75733C549.873 6.46933 550.051 6.24133 550.25 6.07467C550.451 5.908 550.682 5.82401 550.95 5.82401C551.259 5.82401 551.742 6.024 552.398 6.424C553.051 6.82267 553.794 7.368 554.626 8.05467C555.459 8.74267 556.351 9.54667 557.306 10.468C558.259 11.388 559.209 12.3587 560.151 13.3787C561.094 14.4 561.998 15.4427 562.863 16.508C563.73 17.572 564.494 18.604 565.161 19.6027C566.403 21.488 567.434 23.2467 568.255 24.8773C569.075 26.508 569.741 28.028 570.251 29.436C570.762 30.8453 571.145 32.1547 571.401 33.364C571.655 34.5733 571.838 35.7093 571.95 36.7747C572.793 35.9093 573.485 35.1 574.029 34.3453C574.571 33.592 575.006 32.8533 575.327 32.132C575.649 31.412 575.87 30.7013 575.993 30.0027C576.114 29.304 576.177 28.5667 576.177 27.7893C576.177 27.3893 576.137 26.7853 576.059 25.976C575.981 25.1653 575.882 24.2507 575.759 23.2293C575.637 22.2093 575.499 21.1107 575.345 19.9347C575.187 18.7587 575.038 17.6 574.895 16.4573C574.75 15.3147 574.623 14.2333 574.513 13.212C574.401 12.1933 574.311 11.3053 574.245 10.5493C574.223 10.284 574.218 10.0293 574.229 9.78534C574.239 9.54001 574.257 9.29734 574.279 9.052C573.923 8.69867 573.646 8.244 573.447 7.688C573.246 7.13467 573.147 6.59067 573.147 6.05733C573.147 5.23733 573.391 4.332 573.879 3.34534C574.367 2.35867 574.999 1.33201 575.777 0.266673Z" fill="#EA2636"/>
<path d="M591.951 43.8296C591.907 44.0082 591.828 44.1402 591.718 44.2296C591.607 44.3176 591.363 44.3616 590.986 44.3616C590.608 44.3616 590.354 44.3176 590.22 44.2296C590.088 44.1402 590.01 44.0082 589.987 43.8296C589.966 43.3642 589.966 42.7656 589.987 42.0322C590.01 41.3016 590.01 40.5469 589.987 39.7696C589.922 38.1282 589.82 36.3922 589.688 34.5616C589.555 32.7322 589.399 30.8789 589.222 29.0042C589.044 27.1296 588.872 25.2656 588.706 23.4122C588.539 21.5616 588.378 19.7909 588.223 18.1042C588.068 16.4189 587.946 14.8442 587.858 13.3789C587.768 11.9136 587.724 10.6389 587.724 9.55224C587.724 8.97491 587.868 8.37624 588.156 7.75491C588.446 7.13491 588.812 6.50158 589.256 5.85758C589.61 5.32558 589.943 4.88158 590.254 4.52558C590.564 4.17224 590.842 3.99358 591.086 3.99358C591.352 3.99358 591.484 4.11624 591.484 4.36024C591.551 5.82424 591.646 7.42691 591.767 9.16957C591.89 10.9122 592.018 12.7016 592.15 14.5442C592.284 16.3856 592.423 18.2269 592.567 20.0682C592.71 21.9109 592.838 23.6682 592.95 25.3429C593.06 27.0189 593.154 28.5722 593.232 30.0029C593.311 31.4336 593.348 32.6482 593.348 33.6456C593.348 36.1322 593.194 38.2496 592.883 40.0029C592.572 41.7549 592.26 43.0309 591.951 43.8296Z" fill="#EA2636"/>
</svg>
